<svg id="visual" viewBox="0 0 900 600" width="900" height="600" xmlns="http://www.w3.org/2000/svg" xmlns:xlink="http://www.w3.org/1999/xlink" version="1.1"><rect x="0" y="0" width="900" height="600" fill="#ffffff"></rect><defs><linearGradient id="grad1_0" x1="33.3%" y1="100%" x2="100%" y2="0%"><stop offset="20%" stop-color="#ffffff" stop-opacity="1"></stop><stop offset="80%" stop-color="#ffffff" stop-opacity="1"></stop></linearGradient></defs><defs><linearGradient id="grad2_0" x1="0%" y1="100%" x2="66.7%" y2="0%"><stop offset="20%" stop-color="#ffffff" stop-opacity="1"></stop><stop offset="80%" stop-color="#ffffff" stop-opacity="1"></stop></linearGradient></defs><g transform="translate(900, 600)"><path d="M-486.7 0C-437.9 -44.4 -389 -88.8 -374.2 -155C-359.3 -221.1 -378.4 -309 -344.2 -344.2C-310 -379.4 -222.4 -362 -156.1 -376.9C-89.9 -391.9 -44.9 -439.3 0 -486.7L0 0Z" fill="#3F51B5"></path></g><g transform="translate(0, 0)"><path d="M486.7 0C469.3 58.9 451.8 117.7 431.5 178.7C411.1 239.7 387.8 302.9 344.2 344.2C300.6 385.5 236.8 404.9 176 425C115.3 445.1 57.6 465.9 0 486.7L0 0Z" fill="#3F51B5"></path></g></svg>