<?xml version="1.0" ?><svg viewBox="0 0 36 36" xmlns="http://www.w3.org/2000/svg"><defs><style>.cls-1{fill:#d6dbe1;}.cls-2{fill:#322f56;}.cls-3{fill:#66f;}</style></defs><title/><g id="smiling"><path class="cls-1" d="M6,18A15,15,0,0,1,19.5,3.08,14.76,14.76,0,0,0,18,3a15,15,0,0,0,0,30,14.76,14.76,0,0,0,1.5-.08A15,15,0,0,1,6,18Z"/><path class="cls-2" d="M18,34A16,16,0,1,1,34,18,16,16,0,0,1,18,34ZM18,4A14,14,0,1,0,32,18,14,14,0,0,0,18,4Z"/><path class="cls-3" d="M10,16a.93.93,0,0,1-.45-.11,1,1,0,0,1-.44-1.34A3.76,3.76,0,0,1,15.48,14l.32.42a1,1,0,0,1-1.6,1.2l-.32-.42a1.72,1.72,0,0,0-1.57-.7,1.74,1.74,0,0,0-1.42,1A1,1,0,0,1,10,16Z"/><path class="cls-3" d="M26,16a1,1,0,0,1-.89-.55,1.74,1.74,0,0,0-1.42-1,1.72,1.72,0,0,0-1.57.7l-.32.42a1,1,0,0,1-1.6-1.2l.32-.42a3.76,3.76,0,0,1,6.37.57,1,1,0,0,1-.44,1.34A.93.93,0,0,1,26,16Z"/><path class="cls-2" d="M18,25.94a6.63,6.63,0,0,1-5.87-3.45,1,1,0,1,1,1.74-1,4.72,4.72,0,0,0,8.26,0,1,1,0,0,1,1.74,1A6.63,6.63,0,0,1,18,25.94Z"/></g></svg>